<svg xmlns="http://www.w3.org/2000/svg">

<!-- eye-icon  -->
    <symbol id="eye-icon" viewBox="0 0 23 15" >

</symbol>

<!-- heart-icon  -->

<symbol id="heart-icon" viewBox="0 0 23 21" fill="none">
<path d="M20.509 1.75701C19.9524 1.19903 19.291 0.756569 18.5629 0.455043C17.8347 0.153516 17.0541 -0.0011256 16.266 6.16757e-06C14.608 6.16757e-06 13.106 0.673006 12.02 1.76001L11.293 2.49601L10.567 1.75701C9.481 0.671006 7.981 6.16757e-06 6.324 6.16757e-06C4.667 6.16757e-06 3.167 0.672006 2.081 1.75701L1.757 2.08101C0.671 3.16701 0 4.66701 0 6.32401C0 7.98101 0.672 9.48101 1.757 10.567L10.306 19.116L11.271 20.127L11.294 20.104L11.319 20.129L12.223 19.175L20.831 10.567C21.915 9.48001 22.586 7.98101 22.586 6.32401C22.586 4.66701 21.916 3.16801 20.831 2.08101L20.509 1.75701ZM19.772 9.50501L11.295 17.982L2.818 9.50501C2.004 8.69101 1.5 7.56601 1.5 6.32301C1.5 5.08001 2.004 3.95501 2.818 3.14101L3.142 2.81701C3.55941 2.39852 4.0554 2.06665 4.60147 1.84047C5.14755 1.61428 5.73294 1.49824 6.324 1.49901C6.91456 1.49846 7.49942 1.61441 8.04509 1.84023C8.59077 2.06605 9.08653 2.3973 9.504 2.81501L11.29 4.63301L13.084 2.81701C13.898 2.00301 15.023 1.49901 16.266 1.49901C17.509 1.49901 18.634 2.00301 19.448 2.81701L19.772 3.14101C20.585 3.95601 21.088 5.08101 21.088 6.32301C21.088 7.56501 20.585 8.69001 19.772 9.50501Z" fill="url(#paint0_linear_1_111)"/>
<defs>
<linearGradient id="paint0_linear_1_111" x1="-1.51104" y1="10.0681" x2="22.585" y2="10.0681" gradientUnits="userSpaceOnUse">
<stop stop-color="#E40C5A"/>
<stop offset="1" stop-color="#A10C5A"/>
</linearGradient>
</defs>
</symbol>




<!-- question-icon  -->
<symbol id="question-icon" viewBox="0 0 12 12" fill='none' >
<path d="M4.04004 4.31543C4.05176 4.07812 4.1001 3.85693 4.18506 3.65186C4.27002 3.44385 4.3916 3.26221 4.5498 3.10693C4.71094 2.95166 4.90869 2.83008 5.14307 2.74219C5.37744 2.6543 5.64844 2.61035 5.95605 2.61035C6.23145 2.61035 6.4834 2.65137 6.71191 2.7334C6.94043 2.8125 7.13672 2.92383 7.30078 3.06738C7.46777 3.21094 7.59521 3.37939 7.68311 3.57275C7.77393 3.76611 7.81934 3.97559 7.81934 4.20117C7.81934 4.54688 7.73584 4.84424 7.56885 5.09326C7.40479 5.33936 7.18213 5.54736 6.90088 5.71729C6.71631 5.82568 6.57129 5.92969 6.46582 6.0293C6.36328 6.12891 6.29004 6.23584 6.24609 6.3501C6.20508 6.46436 6.18457 6.59912 6.18457 6.75439V7.04004H5.41553V6.63574C5.4126 6.3457 5.48291 6.09668 5.62646 5.88867C5.77002 5.67773 5.99268 5.48145 6.29443 5.2998C6.46436 5.19434 6.60059 5.09033 6.70312 4.98779C6.80859 4.88525 6.88477 4.77393 6.93164 4.65381C6.97852 4.53369 7.00195 4.396 7.00195 4.24072C7.00195 4.05908 6.95801 3.89795 6.87012 3.75732C6.78223 3.61377 6.65771 3.50098 6.49658 3.41895C6.33545 3.33691 6.14502 3.2959 5.92529 3.2959C5.59424 3.2959 5.32764 3.38818 5.12549 3.57275C4.92627 3.75439 4.81494 4.00195 4.7915 4.31543H4.04004ZM5.85938 9.0791C5.68066 9.0791 5.53418 9.02197 5.41992 8.90771C5.30566 8.79346 5.24854 8.64697 5.24854 8.46826C5.24854 8.28955 5.30566 8.14307 5.41992 8.02881C5.53418 7.91162 5.68066 7.85303 5.85938 7.85303C6.03809 7.85303 6.18311 7.91162 6.29443 8.02881C6.40869 8.14307 6.46582 8.28955 6.46582 8.46826C6.46582 8.64697 6.40869 8.79346 6.29443 8.90771C6.18311 9.02197 6.03809 9.0791 5.85938 9.0791Z" fill="#828282"/>
<circle cx="6" cy="6" r="5.5" stroke="#828282"/>
</symbol>



 </svg>

