<svg width="23" height="23" viewBox="0 0 23 23" fill="none" xmlns="http://www.w3.org/2000/svg">
<g clip-path="url(#clip0_1_116)">
<path d="M22.741 10.8748L20.6073 8.74103C18.1902 6.3288 14.9148 4.97403 11.5 4.97403C8.08513 4.97403 4.80977 6.3288 2.39268 8.74103L0.258947 10.8748C0.0931043 11.0407 -6.10352e-05 11.2656 -6.10352e-05 11.5002C-6.10352e-05 11.7348 0.0931043 11.9597 0.258947 12.1256L2.39268 14.2594C4.80988 16.6714 8.0852 18.026 11.5 18.026C14.9147 18.026 18.1901 16.6714 20.6073 14.2594L22.741 12.1256C22.9068 11.9597 23 11.7348 23 11.5002C23 11.2656 22.9068 11.0407 22.741 10.8748ZM19.3564 13.0085C17.2711 15.089 14.4457 16.2575 11.5 16.2575C8.55427 16.2575 5.72885 15.089 3.64355 13.0085L2.13525 11.5002L3.64355 9.9919C5.72885 7.91135 8.55427 6.74292 11.5 6.74292C14.4457 6.74292 17.2711 7.91135 19.3564 9.9919L20.8647 11.5002L19.3564 13.0085Z" fill="url(#paint0_linear_1_116)"/>
<path d="M11.5 7.99991C10.8078 7.99991 10.1311 8.20518 9.55551 8.58976C8.97993 8.97435 8.53133 9.52097 8.26642 10.1605C8.00152 10.8001 7.9322 11.5038 8.06725 12.1827C8.2023 12.8617 8.53564 13.4853 9.02513 13.9748C9.51461 14.4643 10.1383 14.7976 10.8172 14.9327C11.4961 15.0677 12.1999 14.9984 12.8394 14.7335C13.4789 14.4686 14.0256 14.02 14.4101 13.4444C14.7947 12.8688 15 12.1921 15 11.4999C14.9989 10.572 14.6298 9.6824 13.9736 9.02626C13.3175 8.37013 12.4279 8.00102 11.5 7.99991ZM11.5 13.5999C11.0847 13.5999 10.6786 13.4767 10.3333 13.246C9.98796 13.0152 9.7188 12.6873 9.55985 12.3035C9.40091 11.9198 9.35932 11.4976 9.44035 11.0902C9.52138 10.6829 9.72139 10.3087 10.0151 10.015C10.3088 9.72129 10.683 9.52129 11.0903 9.44026C11.4977 9.35923 11.9199 9.40082 12.3036 9.55976C12.6874 9.7187 13.0153 9.98787 13.2461 10.3332C13.4768 10.6786 13.6 11.0846 13.6 11.4999C13.6 12.0569 13.3788 12.591 12.9849 12.9848C12.5911 13.3787 12.057 13.5999 11.5 13.5999Z" fill="url(#paint1_linear_1_116)"/>
</g>
<defs>
<linearGradient id="paint0_linear_1_116" x1="-1.5388" y1="11.5024" x2="22.999" y2="11.5024" gradientUnits="userSpaceOnUse">
<stop stop-color="#E40C5A"/>
<stop offset="1" stop-color="#A10C5A"/>
</linearGradient>
<linearGradient id="paint1_linear_1_116" x1="7.53169" y1="11.5012" x2="14.9997" y2="11.5012" gradientUnits="userSpaceOnUse">
<stop stop-color="#E40C5A"/>
<stop offset="1" stop-color="#A10C5A"/>
</linearGradient>
<clipPath id="clip0_1_116">
<rect width="23" height="23" fill="white"/>
</clipPath>
</defs>
</svg>
