<svg width="23" height="21" viewBox="0 0 23 21" fill="none" xmlns="http://www.w3.org/2000/svg">
<path d="M20.509 1.75701C19.9524 1.19903 19.291 0.756569 18.5629 0.455043C17.8347 0.153516 17.0541 -0.0011256 16.266 6.16757e-06C14.608 6.16757e-06 13.106 0.673006 12.02 1.76001L11.293 2.49601L10.567 1.75701C9.481 0.671006 7.981 6.16757e-06 6.324 6.16757e-06C4.667 6.16757e-06 3.167 0.672006 2.081 1.75701L1.757 2.08101C0.671 3.16701 0 4.66701 0 6.32401C0 7.98101 0.672 9.48101 1.757 10.567L10.306 19.116L11.271 20.127L11.294 20.104L11.319 20.129L12.223 19.175L20.831 10.567C21.915 9.48001 22.586 7.98101 22.586 6.32401C22.586 4.66701 21.916 3.16801 20.831 2.08101L20.509 1.75701ZM19.772 9.50501L11.295 17.982L2.818 9.50501C2.004 8.69101 1.5 7.56601 1.5 6.32301C1.5 5.08001 2.004 3.95501 2.818 3.14101L3.142 2.81701C3.55941 2.39852 4.0554 2.06665 4.60147 1.84047C5.14755 1.61428 5.73294 1.49824 6.324 1.49901C6.91456 1.49846 7.49942 1.61441 8.04509 1.84023C8.59077 2.06605 9.08653 2.3973 9.504 2.81501L11.29 4.63301L13.084 2.81701C13.898 2.00301 15.023 1.49901 16.266 1.49901C17.509 1.49901 18.634 2.00301 19.448 2.81701L19.772 3.14101C20.585 3.95601 21.088 5.08101 21.088 6.32301C21.088 7.56501 20.585 8.69001 19.772 9.50501Z" fill="url(#paint0_linear_1_111)"/>
<defs>
<linearGradient id="paint0_linear_1_111" x1="-1.51104" y1="10.0681" x2="22.585" y2="10.0681" gradientUnits="userSpaceOnUse">
<stop stop-color="#E40C5A"/>
<stop offset="1" stop-color="#A10C5A"/>
</linearGradient>
</defs>
</svg>
